<?xml version="1.0" encoding="UTF-8"?>
<svg width="30px" height="30px" viewBox="0 0 30 30" version="1.1" xmlns="http://www.w3.org/2000/svg" xmlns:xlink="http://www.w3.org/1999/xlink">
    <!-- Generator: Sketch 59 (86127) - https://sketch.com -->
    <title>Deadpool/Icons/Dark/Misc/Icons-Misc-ChevronLeft</title>
    <desc>Created with Sketch.</desc>
    <g transform = "rotate(180 15 15)" id="Deadpool/Icons/Dark/Misc/Icons-Misc-ChevronLeft" stroke="none" stroke-width="1" fill="none" fill-rule="evenodd">
        <path d="M15.2796166,15 L12.1806166,19.427 C11.8646166,19.879 11.9736166,20.503 12.4266166,20.819 C12.8806166,21.136 13.5036166,21.027 13.8196166,20.573 L17.3196166,15.573 C17.3246166,15.566 17.3246166,15.558 17.3296166,15.551 C17.3726166,15.486 17.3946166,15.414 17.4216166,15.341 C17.4396166,15.291 17.4686166,15.243 17.4786166,15.191 C17.4916166,15.128 17.4816166,15.064 17.4816166,15 C17.4816166,14.936 17.4916166,14.873 17.4786166,14.81 C17.4686166,14.757 17.4396166,14.71 17.4216166,14.659 C17.3946166,14.587 17.3726166,14.514 17.3296166,14.449 C17.3246166,14.442 17.3246166,14.434 17.3196166,14.427 L13.8196166,9.427 C13.6256166,9.148 13.3146166,9 12.9996166,9 C12.8006166,9 12.6006166,9.059 12.4266166,9.181 C11.9736166,9.497 11.8646166,10.121 12.1806166,10.573 L15.2796166,15 Z" id="Fill-1" fill="#666666"></path>
    </g>
</svg>