<?xml version="1.0" encoding="UTF-8"?>
<svg width="30px" height="30px" viewBox="0 0 30 30" version="1.1" xmlns="http://www.w3.org/2000/svg" xmlns:xlink="http://www.w3.org/1999/xlink">
    <!-- Generator: Sketch 59 (86127) - https://sketch.com -->
    <title>Deadpool/Icons/Dark/Misc/Icons-Misc-Plus</title>
    <desc>Created with Sketch.</desc>
    <g id="Deadpool/Icons/Dark/Misc/Icons-Misc-Plus" stroke="none" stroke-width="1" fill="none" fill-rule="evenodd">
        <path d="M16.7576986,15.4998444 L19.7438953,12.4983478 C20.0912949,12.1491482 20.0840949,11.5911488 19.7285953,11.2509492 C19.3730957,10.9107496 18.8033963,10.9179495 18.4559967,11.2662492 L15.5004,14.2362458 L12.5439033,11.2662492 C12.1974037,10.9179495 11.6277043,10.9098496 11.2713047,11.2509492 C10.9158051,11.5911488 10.9086051,12.1491482 11.2560047,12.4983478 L14.2431014,15.4998444 L11.2560047,18.5013411 C10.9086051,18.8505407 10.9158051,19.4094401 11.2713047,19.7496397 C11.4468045,19.9170395 11.6736043,19.9998394 11.900404,19.9998394 C12.1335038,19.9998394 12.3684035,19.9107395 12.5439033,19.7343397 L15.5004,16.763443 L18.4559967,19.7343397 C18.6323965,19.9107395 18.8663962,19.9998394 19.100396,19.9998394 C19.3262957,19.9998394 19.5530955,19.9170395 19.7285953,19.7496397 C20.0840949,19.4094401 20.0912949,18.8505407 19.7438953,18.5013411 L16.7576986,15.4998444 Z" id="Fill-1" fill="#666666" transform="translate(15.499950, 15.499920) rotate(-45.000000) translate(-15.499950, -15.499920) "></path>
    </g>
</svg>