<?xml version="1.0" encoding="UTF-8"?>
<svg width="30px" height="30px" viewBox="0 0 30 30" version="1.1" xmlns="http://www.w3.org/2000/svg" xmlns:xlink="http://www.w3.org/1999/xlink">
    <!-- Generator: Sketch 59 (86127) - https://sketch.com -->
    <title>Deadpool/Icons/Dark/Misc/Icons-Misc-Edit</title>
    <desc>Created with Sketch.</desc>
    <g id="Deadpool/Icons/Dark/Misc/Icons-Misc-Edit" stroke="none" stroke-width="1" fill="none" fill-rule="evenodd">
        <path d="M17.6470932,7.29289322 C18.0376175,6.90236893 18.6707825,6.90236893 19.0613068,7.29289322 L19.0613068,7.29289322 L22.7073068,10.9388932 C23.0978311,11.3294175 23.0978311,11.9625825 22.7073068,12.3531068 L22.7073068,12.3531068 L11.3533068,23.7071068 C11.1152754,23.9451382 10.7871001,24.0380853 10.4786695,23.985948 L10.4376211,23.9927723 L10.4376211,23.9927723 L10.321,23.9995 L7,23.9995 C6.44771525,23.9995 6,23.5517847 6,22.9995 L6,22.9995 L6,19.6795 C6,19.6249055 6.00437495,19.5713329 6.01279339,19.5191135 C5.96253176,19.2116304 6.05559488,18.8843916 6.29309322,18.6468932 L6.29309322,18.6468932 L14.274,10.665 L14.2828932,10.6562932 C14.2854229,10.6537635 14.2879628,10.6512502 14.2905128,10.6487532 Z M17.222,15.01 L14.99,12.778 L7.999,19.769 L8,21.9995 L10.232,21.999 L17.222,15.01 Z M18.3542,9.41421356 L16.405,11.364 L18.636,13.595 L20.5859864,11.646 L18.3542,9.41421356 Z" id="Combined-Shape" fill="#666666"></path>
    </g>
</svg>